<svg width="41" height="41" viewBox="0 0 41 41" fill="none" xmlns="http://www.w3.org/2000/svg">
<circle cx="20.5" cy="20.5" r="20.5" fill="#00A3FF"/>
<g clip-path="url(#clip0_25_27)">
<path d="M32.1997 10.9987C22.6864 8.80235 17.7205 24.8522 15.5916 31.18L17.0687 30.2361C18.3214 26.7373 19.8352 25.0035 21.6112 25.0339C24.2726 25.0801 27.0471 21.7427 28.4287 18.6521L27.7265 17.3534L28.6098 16.4208C29.4931 15.4882 30.5036 14.0167 32.1997 10.9987Z" fill="white"/>
</g>
<path d="M13.6484 19.2188H14.3516C14.4141 19.2188 14.4453 19.1875 14.4453 19.125V10.875C14.4453 10.8125 14.4141 10.7812 14.3516 10.7812H13.6484C13.5859 10.7812 13.5547 10.8125 13.5547 10.875V19.125C13.5547 19.1875 13.5859 19.2188 13.6484 19.2188Z" fill="white"/>
<path d="M10.0625 15.4453H17.9375C18 15.4453 18.0313 15.4141 18.0313 15.3516V14.6484C18.0313 14.5859 18 14.5547 17.9375 14.5547H10.0625C10 14.5547 9.96875 14.5859 9.96875 14.6484V15.3516C9.96875 15.4141 10 15.4453 10.0625 15.4453Z" fill="white"/>
<defs>
<clipPath id="clip0_25_27">
<rect width="17" height="23" fill="white" transform="translate(18.3965 7.81177) rotate(13)"/>
</clipPath>
</defs>
</svg>
