<svg width="32" height="35" viewBox="0 0 32 35" fill="none" xmlns="http://www.w3.org/2000/svg">
<path d="M29.3266 13.3C29.3359 11.5626 29.0013 9.84041 28.3418 8.23174C27.6824 6.62308 26.7111 5.15944 25.4834 3.92442C24.2557 2.6894 22.7957 1.70717 21.1866 1.03381C19.5775 0.360458 17.851 0.00916825 16.1055 0H16C12.4623 0.00926664 9.07273 1.4146 6.57451 3.90783C4.07629 6.40106 2.67336 9.77868 2.67337 13.3C2.67337 19.46 1.37236 22.9775 0.282317 24.8325C0.0973081 25.155 0 25.5199 0 25.8912C0 26.2626 0.0973081 26.6275 0.282317 26.95C0.466218 27.2706 0.732457 27.5369 1.05375 27.7214C1.37505 27.9059 1.73985 28.002 2.11077 28H9.67073V28.7C9.67073 30.3709 10.3376 31.9733 11.5245 33.1548C12.7115 34.3363 14.3214 35 16 35C17.6786 35 19.2885 34.3363 20.4755 33.1548C21.6624 31.9733 22.3293 30.3709 22.3293 28.7V28H29.8892C30.2602 28.002 30.625 27.9059 30.9462 27.7214C31.2675 27.5369 31.5338 27.2706 31.7177 26.95C31.9027 26.6275 32 26.2626 32 25.8912C32 25.5199 31.9027 25.155 31.7177 24.8325C30.6276 22.9775 29.3266 19.46 29.3266 13.3ZM20.9228 28.7C20.9228 29.9996 20.4041 31.2459 19.4809 32.1648C18.5577 33.0838 17.3056 33.6 16 33.6C14.6944 33.6 13.4423 33.0838 12.5191 32.1648C11.5959 31.2459 11.0772 29.9996 11.0772 28.7V28H20.9228V28.7ZM30.5046 26.25C30.441 26.3562 30.3509 26.4442 30.2431 26.5055C30.1353 26.5668 30.0134 26.5994 29.8892 26.6H2.11077C1.9866 26.5994 1.86471 26.5668 1.7569 26.5055C1.64909 26.4442 1.55902 26.3562 1.49543 26.25C1.43635 26.1421 1.40688 26.0205 1.40996 25.8977C1.41305 25.7748 1.44859 25.6549 1.51301 25.55C2.67337 23.5375 4.07988 19.775 4.07988 13.3C4.07757 11.7396 4.38406 10.194 4.98185 8.75143C5.57964 7.3089 6.45703 5.99769 7.56391 4.89267C8.6708 3.78766 9.98551 2.91047 11.433 2.31119C12.8804 1.71192 14.4323 1.4023 16 1.4H16.0879C17.6502 1.40687 19.1957 1.72026 20.6362 2.32223C22.0766 2.9242 23.3837 3.80295 24.4827 4.9082C25.5816 6.01345 26.4509 7.32352 27.0407 8.76347C27.6305 10.2034 27.9294 11.745 27.9201 13.3C27.9201 19.775 29.3266 23.5375 30.487 25.55C30.5514 25.6549 30.587 25.7748 30.59 25.8977C30.5931 26.0205 30.5636 26.1421 30.5046 26.25Z" fill="black"/>
</svg>
