<svg width="36" height="36" viewBox="0 0 36 36" fill="none" xmlns="http://www.w3.org/2000/svg">
<path fill-rule="evenodd" clip-rule="evenodd" d="M29 34C30.3261 34 31.5979 33.4732 32.5355 32.5355C33.4732 31.5979 34 30.3261 34 29C34 27.6739 33.4732 26.4021 32.5355 25.4645C31.5979 24.5268 30.3261 24 29 24C27.6739 24 26.4021 24.5268 25.4645 25.4645C24.5268 26.4021 24 27.6739 24 29C24 30.3261 24.5268 31.5979 25.4645 32.5355C26.4021 33.4732 27.6739 34 29 34ZM29 36C30.8565 36 32.637 35.2625 33.9497 33.9497C35.2625 32.637 36 30.8565 36 29C36 27.1435 35.2625 25.363 33.9497 24.0503C32.637 22.7375 30.8565 22 29 22C27.1435 22 25.363 22.7375 24.0503 24.0503C22.7375 25.363 22 27.1435 22 29C22 30.8565 22.7375 32.637 24.0503 33.9497C25.363 35.2625 27.1435 36 29 36V36Z" fill="#00A3FF"/>
<path fill-rule="evenodd" clip-rule="evenodd" d="M2 6C2 5.73478 2.10536 5.48043 2.29289 5.29289C2.48043 5.10536 2.73478 5 3 5H8V3H3C2.20435 3 1.44129 3.31607 0.87868 3.87868C0.316071 4.44129 0 5.20435 0 6V30C0 30.7956 0.316071 31.5587 0.87868 32.1213C1.44129 32.6839 2.20435 33 3 33H23.255C22.8285 32.3892 22.5028 31.7139 22.29 31H3C2.73478 31 2.48043 30.8946 2.29289 30.7071C2.10536 30.5196 2 30.2652 2 30V6ZM28 22.07C28.6633 21.9751 29.3367 21.9751 30 22.07V6C30 5.20435 29.6839 4.44129 29.1213 3.87868C28.5587 3.31607 27.7956 3 27 3H24V5H27C27.2652 5 27.5196 5.10536 27.7071 5.29289C27.8946 5.48043 28 5.73478 28 6V22.07ZM10 5H20.563V3H10V5Z" fill="#00A3FF"/>
<path fill-rule="evenodd" clip-rule="evenodd" d="M30 12H2V10H30V12Z" fill="#00A3FF"/>
<path d="M6 1C6 0.734784 6.10536 0.48043 6.29289 0.292893C6.48043 0.105357 6.73478 0 7 0C7.26522 0 7.51957 0.105357 7.70711 0.292893C7.89464 0.48043 8 0.734784 8 1V6C8 6.26522 7.89464 6.51957 7.70711 6.70711C7.51957 6.89464 7.26522 7 7 7C6.73478 7 6.48043 6.89464 6.29289 6.70711C6.10536 6.51957 6 6.26522 6 6V1ZM20 1C20 0.734784 20.1054 0.48043 20.2929 0.292893C20.4804 0.105357 20.7348 0 21 0C21.2652 0 21.5196 0.105357 21.7071 0.292893C21.8946 0.48043 22 0.734784 22 1V6C22 6.26522 21.8946 6.51957 21.7071 6.70711C21.5196 6.89464 21.2652 7 21 7C20.7348 7 20.4804 6.89464 20.2929 6.70711C20.1054 6.51957 20 6.26522 20 6V1Z" fill="#00A3FF"/>
<path d="M28 25.5C28 25.2239 28.2239 25 28.5 25V25C28.7761 25 29 25.2239 29 25.5V30H28V25.5Z" fill="#00A3FF"/>
<path d="M28.292 29L31.6391 30.0233C31.9031 30.104 32.0518 30.3836 31.971 30.6476V30.6476C31.8903 30.9117 31.6108 31.0603 31.3467 30.9796L27.9996 29.9563L28.292 29Z" fill="#00A3FF"/>
</svg>
