<svg width="26" height="26" viewBox="0 0 26 26" fill="none" xmlns="http://www.w3.org/2000/svg">
<path d="M13 24.375C9.98316 24.375 7.08989 23.1766 4.95666 21.0433C2.82343 18.9101 1.625 16.0168 1.625 13C1.625 9.98316 2.82343 7.08989 4.95666 4.95666C7.08989 2.82343 9.98316 1.625 13 1.625C16.0168 1.625 18.9101 2.82343 21.0433 4.95666C23.1766 7.08989 24.375 9.98316 24.375 13C24.375 16.0168 23.1766 18.9101 21.0433 21.0433C18.9101 23.1766 16.0168 24.375 13 24.375ZM13 26C16.4478 26 19.7544 24.6304 22.1924 22.1924C24.6304 19.7544 26 16.4478 26 13C26 9.55219 24.6304 6.24558 22.1924 3.80761C19.7544 1.36964 16.4478 0 13 0C9.55219 0 6.24558 1.36964 3.80761 3.80761C1.36964 6.24558 0 9.55219 0 13C0 16.4478 1.36964 19.7544 3.80761 22.1924C6.24558 24.6304 9.55219 26 13 26V26Z" fill="#00A3FF"/>
<path d="M6.96287 15.5464C7.14948 15.4386 7.37125 15.4094 7.57939 15.4652C7.78753 15.521 7.965 15.6571 8.07274 15.8438C8.5718 16.7088 9.28995 17.4271 10.1549 17.9263C11.0199 18.4256 12.0011 18.6881 12.9997 18.6875C13.9984 18.6881 14.9796 18.4256 15.8446 17.9263C16.7095 17.4271 17.4277 16.7088 17.9267 15.8438C17.9797 15.7506 18.0506 15.6688 18.1353 15.6032C18.2199 15.5375 18.3168 15.4893 18.4202 15.4612C18.5236 15.4331 18.6315 15.4258 18.7378 15.4396C18.844 15.4534 18.9465 15.4881 19.0393 15.5417C19.1321 15.5953 19.2134 15.6667 19.2785 15.7518C19.3436 15.8369 19.3912 15.9341 19.4186 16.0377C19.446 16.1412 19.4526 16.2492 19.4381 16.3554C19.4236 16.4616 19.3882 16.5638 19.334 16.6562C18.6923 17.7683 17.769 18.6918 16.6571 19.3336C15.5451 19.9755 14.2837 20.3131 12.9997 20.3125C11.7158 20.3131 10.4544 19.9755 9.34243 19.3336C8.23045 18.6918 7.30717 17.7683 6.66549 16.6562C6.55775 16.4696 6.52856 16.2479 6.58433 16.0397C6.64009 15.8316 6.77626 15.6541 6.96287 15.5464ZM11.3747 10.5625C11.3747 11.908 10.6467 13 9.74974 13C8.85274 13 8.12474 11.908 8.12474 10.5625C8.12474 9.217 8.85274 8.125 9.74974 8.125C10.6467 8.125 11.3747 9.217 11.3747 10.5625ZM17.8747 10.5625C17.8747 11.908 17.1467 13 16.2497 13C15.3527 13 14.6247 11.908 14.6247 10.5625C14.6247 9.217 15.3527 8.125 16.2497 8.125C17.1467 8.125 17.8747 9.217 17.8747 10.5625Z" fill="#00A3FF"/>
</svg>
