<svg width="20" height="18" viewBox="0 0 20 18" fill="none" xmlns="http://www.w3.org/2000/svg">
<path d="M16.75 0.000999928C17.1768 0.000999928 17.5994 0.0850638 17.9937 0.248392C18.388 0.411719 18.7463 0.651112 19.0481 0.952903C19.3499 1.25469 19.5893 1.61297 19.7526 2.00728C19.9159 2.40159 20 2.8242 20 3.251V13.754C20 14.1808 19.9159 14.6034 19.7526 14.9977C19.5893 15.392 19.3499 15.7503 19.0481 16.0521C18.7463 16.3539 18.388 16.5933 17.9937 16.7566C17.5994 16.9199 17.1768 17.004 16.75 17.004H3.25C2.38805 17.004 1.5614 16.6616 0.951903 16.0521C0.34241 15.4426 0 14.616 0 13.754V3.25C0 2.38805 0.34241 1.5614 0.951903 0.951903C1.5614 0.34241 2.38805 0 3.25 0H16.75V0.000999928ZM16.75 1.501H3.25C2.78587 1.501 2.34075 1.68537 2.01256 2.01356C1.68437 2.34175 1.5 2.78687 1.5 3.251V13.754C1.5 14.72 2.284 15.504 3.25 15.504H16.75C17.2141 15.504 17.6592 15.3196 17.9874 14.9914C18.3156 14.6632 18.5 14.2181 18.5 13.754V3.25C18.5 2.78587 18.3156 2.34075 17.9874 2.01256C17.6592 1.68437 17.2141 1.5 16.75 1.5V1.501ZM6.015 5.372C6.611 5.372 7.034 5.454 7.517 5.686C7.591 5.72152 7.65728 5.77127 7.71205 5.83241C7.76682 5.89355 7.80902 5.96487 7.83623 6.04232C7.86343 6.11976 7.87512 6.20181 7.87062 6.28377C7.86612 6.36573 7.84552 6.446 7.81 6.52C7.77448 6.594 7.72473 6.66028 7.66359 6.71505C7.60245 6.76982 7.53113 6.81202 7.45368 6.83923C7.37624 6.86643 7.29419 6.87812 7.21223 6.87362C7.13027 6.86912 7.05 6.84852 6.976 6.813C6.676 6.669 6.436 6.623 6.015 6.623C5.148 6.623 4.511 7.419 4.511 8.495C4.511 9.572 5.149 10.371 6.015 10.371C6.443 10.371 6.806 10.191 6.995 9.87L7 9.855V9.121H6.624C6.47436 9.12099 6.32969 9.06729 6.21629 8.96967C6.10288 8.87204 6.02827 8.73697 6.006 8.589L6 8.497C6 8.183 6.231 7.923 6.533 7.878L6.625 7.872H7.627C7.941 7.872 8.2 8.102 8.245 8.404L8.252 8.497L8.25 10.044L8.244 10.1L8.223 10.19L8.203 10.245C7.826 11.135 6.962 11.621 6.015 11.621C4.389 11.621 3.261 10.208 3.261 8.495C3.261 6.782 4.388 5.372 6.015 5.372V5.372ZM10.629 5.494C10.943 5.494 11.203 5.726 11.247 6.027L11.254 6.119V10.882C11.2537 11.0396 11.1939 11.1912 11.0865 11.3065C10.9792 11.4219 10.8323 11.4924 10.6751 11.504C10.518 11.5157 10.3623 11.4675 10.2391 11.3692C10.116 11.271 10.0345 11.1298 10.011 10.974L10.004 10.882V6.119C10.004 5.774 10.284 5.494 10.629 5.494ZM13.625 5.494L15.622 5.501C15.7804 5.50059 15.9331 5.56034 16.0491 5.66818C16.1651 5.77601 16.2359 5.92388 16.2471 6.0819C16.2582 6.23991 16.209 6.39627 16.1093 6.51936C16.0096 6.64246 15.8669 6.72311 15.71 6.745L15.618 6.751L14.247 6.746V8.5H15.37C15.684 8.5 15.944 8.732 15.988 9.034L15.995 9.126C15.995 9.27579 15.9411 9.42057 15.8433 9.534C15.7455 9.64743 15.6102 9.72195 15.462 9.744L15.37 9.751L14.247 9.75V10.865C14.2472 11.0148 14.1936 11.1597 14.096 11.2733C13.9983 11.3869 13.8631 11.4617 13.715 11.484L13.623 11.49C13.4732 11.4902 13.3283 11.4366 13.2147 11.339C13.1011 11.2413 13.0263 11.1061 13.004 10.958L12.998 10.865V6.117C12.9986 5.96741 13.0528 5.82298 13.1507 5.70995C13.2487 5.59692 13.384 5.52278 13.532 5.501L13.625 5.494V5.494Z" fill="#00A3FF"/>
</svg>
