<svg width="41" height="41" viewBox="0 0 41 41" fill="none" xmlns="http://www.w3.org/2000/svg">
<g clip-path="url(#clip0_12_27)">
<path fill-rule="evenodd" clip-rule="evenodd" d="M22.5974 4.59194C21.9976 4.12538 21.2594 3.87207 20.4995 3.87207C19.7397 3.87207 19.0015 4.12538 18.4017 4.59194L4.07903 15.7303C2.79436 16.7331 3.50161 18.7916 5.12965 18.7916H6.99515L8.39598 32.7982C8.48029 33.6413 8.87484 34.423 9.50304 34.9915C10.1312 35.5601 10.9483 35.8749 11.7956 35.8749H29.2035C30.0508 35.8749 30.8678 35.5601 31.496 34.9915C32.1242 34.423 32.5188 33.6413 32.6031 32.7982L34.0039 18.7916H35.8694C37.4957 18.7916 38.2064 16.7331 36.92 15.732L22.5974 4.59365V4.59194ZM10.2427 16.9295C10.22 16.7026 10.1524 16.4825 10.0439 16.2819C9.93537 16.0813 9.7881 15.9042 9.61061 15.761L20.4995 7.2894L31.3884 15.7593C31.211 15.9025 31.0637 16.0796 30.9552 16.2802C30.8467 16.4807 30.7791 16.7009 30.7564 16.9278L29.2035 32.4583H11.7956L10.2427 16.9295ZM17.937 22.2083C17.937 21.5287 18.207 20.8769 18.6876 20.3963C19.1681 19.9158 19.8199 19.6458 20.4995 19.6458C21.1791 19.6458 21.8309 19.9158 22.3115 20.3963C22.7921 20.8769 23.062 21.5287 23.062 22.2083C23.062 22.8879 22.7921 23.5397 22.3115 24.0202C21.8309 24.5008 21.1791 24.7708 20.4995 24.7708C19.8199 24.7708 19.1681 24.5008 18.6876 24.0202C18.207 23.5397 17.937 22.8879 17.937 22.2083ZM20.4995 16.2291C18.9138 16.2291 17.3929 16.8591 16.2716 17.9804C15.1503 19.1017 14.5204 20.6225 14.5204 22.2083C14.5204 23.794 15.1503 25.3149 16.2716 26.4362C17.3929 27.5575 18.9138 28.1874 20.4995 28.1874C22.0853 28.1874 23.6061 27.5575 24.7274 26.4362C25.8487 25.3149 26.4787 23.794 26.4787 22.2083C26.4787 20.6225 25.8487 19.1017 24.7274 17.9804C23.6061 16.8591 22.0853 16.2291 20.4995 16.2291Z" fill="black"/>
</g>
<defs>
<clipPath id="clip0_12_27">
<rect width="41" height="41" fill="white"/>
</clipPath>
</defs>
</svg>
