<svg width="1440" height="800" viewBox="0 0 1440 800" fill="none" xmlns="http://www.w3.org/2000/svg">
<rect width="1440" height="800" fill="black"/>
<path d="M691.519 356.658C667.257 356.658 647.687 376.232 647.687 400.5C647.687 424.768 667.257 444.342 691.519 444.342C715.781 444.342 735.352 424.768 735.352 400.5C735.352 376.232 715.781 356.658 691.519 356.658ZM691.519 429.003C675.84 429.003 663.022 416.221 663.022 400.5C663.022 384.779 675.802 371.997 691.519 371.997C707.236 371.997 720.016 384.779 720.016 400.5C720.016 416.221 707.198 429.003 691.519 429.003ZM747.368 354.864C747.368 360.55 742.79 365.09 737.145 365.09C731.46 365.09 726.921 360.512 726.921 354.864C726.921 349.217 731.499 344.638 737.145 344.638C742.79 344.638 747.368 349.217 747.368 354.864ZM776.399 365.243C775.751 351.545 772.622 339.411 762.589 329.414C752.595 319.417 740.463 316.288 726.768 315.601C712.653 314.8 670.347 314.8 656.232 315.601C642.575 316.25 630.444 319.378 620.411 329.376C610.378 339.373 607.288 351.507 606.601 365.205C605.8 379.323 605.8 421.639 606.601 435.757C607.249 449.455 610.378 461.589 620.411 471.586C630.444 481.583 642.537 484.712 656.232 485.399C670.347 486.2 712.653 486.2 726.768 485.399C740.463 484.75 752.595 481.621 762.589 471.586C772.584 461.589 775.713 449.455 776.399 435.757C777.2 421.639 777.2 379.361 776.399 365.243ZM758.164 450.905C755.189 458.384 749.428 464.146 741.913 467.16C730.659 471.624 703.955 470.594 691.519 470.594C679.083 470.594 652.341 471.586 641.125 467.16C633.648 464.184 627.888 458.422 624.874 450.905C620.411 439.649 621.441 412.939 621.441 400.5C621.441 388.061 620.449 361.313 624.874 350.095C627.849 342.616 633.61 336.854 641.125 333.84C652.379 329.376 679.083 330.406 691.519 330.406C703.955 330.406 730.697 329.414 741.913 333.84C749.39 336.816 755.151 342.578 758.164 350.095C762.628 361.351 761.598 388.061 761.598 400.5C761.598 412.939 762.628 439.687 758.164 450.905Z" fill="white"/>
<path d="M842.318 387H838.091C837.841 385.784 837.403 384.716 836.778 383.795C836.165 382.875 835.415 382.102 834.528 381.477C833.653 380.841 832.682 380.364 831.614 380.045C830.545 379.727 829.432 379.568 828.273 379.568C826.159 379.568 824.244 380.102 822.528 381.17C820.824 382.239 819.466 383.812 818.455 385.892C817.455 387.972 816.955 390.523 816.955 393.545C816.955 396.568 817.455 399.119 818.455 401.199C819.466 403.278 820.824 404.852 822.528 405.92C824.244 406.989 826.159 407.523 828.273 407.523C829.432 407.523 830.545 407.364 831.614 407.045C832.682 406.727 833.653 406.256 834.528 405.631C835.415 404.994 836.165 404.216 836.778 403.295C837.403 402.364 837.841 401.295 838.091 400.091H842.318C842 401.875 841.42 403.472 840.58 404.881C839.739 406.29 838.693 407.489 837.443 408.477C836.193 409.455 834.79 410.199 833.233 410.71C831.688 411.222 830.034 411.477 828.273 411.477C825.295 411.477 822.648 410.75 820.33 409.295C818.011 407.841 816.188 405.773 814.858 403.091C813.528 400.409 812.864 397.227 812.864 393.545C812.864 389.864 813.528 386.682 814.858 384C816.188 381.318 818.011 379.25 820.33 377.795C822.648 376.341 825.295 375.614 828.273 375.614C830.034 375.614 831.688 375.869 833.233 376.381C834.79 376.892 836.193 377.642 837.443 378.631C838.693 379.608 839.739 380.801 840.58 382.21C841.42 383.608 842 385.205 842.318 387ZM849.149 411V376.091H853.376V407.25H869.604V411H849.149ZM904.244 393.545C904.244 397.227 903.58 400.409 902.25 403.091C900.92 405.773 899.097 407.841 896.778 409.295C894.46 410.75 891.813 411.477 888.835 411.477C885.858 411.477 883.21 410.75 880.892 409.295C878.574 407.841 876.75 405.773 875.42 403.091C874.091 400.409 873.426 397.227 873.426 393.545C873.426 389.864 874.091 386.682 875.42 384C876.75 381.318 878.574 379.25 880.892 377.795C883.21 376.341 885.858 375.614 888.835 375.614C891.813 375.614 894.46 376.341 896.778 377.795C899.097 379.25 900.92 381.318 902.25 384C903.58 386.682 904.244 389.864 904.244 393.545ZM900.153 393.545C900.153 390.523 899.648 387.972 898.636 385.892C897.636 383.812 896.278 382.239 894.562 381.17C892.858 380.102 890.949 379.568 888.835 379.568C886.722 379.568 884.807 380.102 883.091 381.17C881.386 382.239 880.028 383.812 879.017 385.892C878.017 387.972 877.517 390.523 877.517 393.545C877.517 396.568 878.017 399.119 879.017 401.199C880.028 403.278 881.386 404.852 883.091 405.92C884.807 406.989 886.722 407.523 888.835 407.523C890.949 407.523 892.858 406.989 894.562 405.92C896.278 404.852 897.636 403.278 898.636 401.199C899.648 399.119 900.153 396.568 900.153 393.545ZM939.034 376.091V411H934.943L915.92 383.591H915.58V411H911.352V376.091H915.443L934.534 403.568H934.875V376.091H939.034ZM947.493 411V376.091H968.561V379.841H951.72V391.636H967.47V395.386H951.72V407.25H968.834V411H947.493Z" fill="white"/>
</svg>
