<svg width="44" height="35" viewBox="0 0 44 35" fill="none" xmlns="http://www.w3.org/2000/svg">
<path d="M43 6.19235V28.8077C43 30.093 42.4894 31.3256 41.5806 32.2345C40.6718 33.1433 39.4391 33.6539 38.1538 33.6539H5.84615C4.56087 33.6539 3.32824 33.1433 2.41941 32.2345C1.51058 31.3256 1 30.093 1 28.8077V6.19235M43 6.19235C43 4.90707 42.4894 3.67443 41.5806 2.7656C40.6718 1.85677 39.4391 1.34619 38.1538 1.34619H5.84615C4.56087 1.34619 3.32824 1.85677 2.41941 2.7656C1.51058 3.67443 1 4.90707 1 6.19235M43 6.19235V6.71573C43.0001 7.54312 42.7883 8.35676 42.3849 9.07914C41.9815 9.80152 41.3999 10.4086 40.6954 10.8425L24.5415 20.7825C23.7774 21.2532 22.8975 21.5024 22 21.5024C21.1025 21.5024 20.2226 21.2532 19.4585 20.7825L3.30462 10.8447C2.60014 10.4107 2.01849 9.80367 1.61507 9.08129C1.21166 8.35891 0.999908 7.54528 1 6.71788V6.19235" stroke="black" stroke-width="1.5" stroke-linecap="round" stroke-linejoin="round"/>
</svg>
