<svg width="29" height="29" viewBox="0 0 29 29" fill="none" xmlns="http://www.w3.org/2000/svg">
<g clip-path="url(#clip0_48_33)">
<path d="M29 14.5C29 18.3456 27.4723 22.0338 24.753 24.753C22.0338 27.4723 18.3456 29 14.5 29C10.6544 29 6.96623 27.4723 4.24695 24.753C1.52767 22.0338 0 18.3456 0 14.5C0 10.6544 1.52767 6.96623 4.24695 4.24695C6.96623 1.52767 10.6544 0 14.5 0C18.3456 0 22.0338 1.52767 24.753 4.24695C27.4723 6.96623 29 10.6544 29 14.5V14.5ZM12.3069 9.23106C12.1714 9.13458 12.0119 9.07726 11.846 9.06537C11.6801 9.05349 11.5141 9.0875 11.3662 9.16369C11.2183 9.23987 11.0943 9.35529 11.0076 9.49729C10.921 9.63929 10.8751 9.8024 10.875 9.96875V19.0312C10.8751 19.1976 10.921 19.3607 11.0076 19.5027C11.0943 19.6447 11.2183 19.7601 11.3662 19.8363C11.5141 19.9125 11.6801 19.9465 11.846 19.9346C12.0119 19.9227 12.1714 19.8654 12.3069 19.7689L18.6506 15.2377C18.7681 15.1539 18.8639 15.0432 18.9299 14.9149C18.996 14.7866 19.0305 14.6443 19.0305 14.5C19.0305 14.3557 18.996 14.2134 18.9299 14.0851C18.8639 13.9568 18.7681 13.8461 18.6506 13.7623L12.3069 9.23106V9.23106Z" fill="#00A3FF"/>
</g>
<defs>
<clipPath id="clip0_48_33">
<rect width="29" height="29" fill="white"/>
</clipPath>
</defs>
</svg>
