<svg width="19" height="17" viewBox="0 0 19 17" fill="none" xmlns="http://www.w3.org/2000/svg">
<path d="M18.6377 8.65142C18.7085 8.72032 18.7647 8.80269 18.8031 8.89367C18.8415 8.98466 18.8613 9.08241 18.8613 9.18117C18.8613 9.27993 18.8415 9.37769 18.8031 9.46867C18.7647 9.55966 18.7085 9.64203 18.6377 9.71092C18.4927 9.85217 18.2983 9.93121 18.0958 9.93121C17.8934 9.93121 17.6989 9.85217 17.5539 9.71092L9.43212 1.7923L1.30874 9.71092C1.23576 9.7822 1.14946 9.83841 1.05476 9.87634C0.960054 9.91426 0.858807 9.93316 0.7568 9.93195C0.654792 9.93075 0.554021 9.90946 0.460242 9.8693C0.366463 9.82915 0.281514 9.77091 0.210243 9.69792C0.142302 9.6284 0.0887371 9.54616 0.0526145 9.45591C0.0164918 9.36566 -0.00148032 9.26918 -0.000272854 9.17198C0.000934616 9.07478 0.0212984 8.97877 0.0596518 8.88944C0.0980051 8.80012 0.153595 8.71924 0.223242 8.65142L8.86499 0.230671C9.01673 0.082773 9.22023 0 9.43212 0C9.64401 0 9.84751 0.082773 9.99924 0.230671L18.6377 8.65142V8.65142ZM18.6377 15.1514C18.7085 15.2203 18.7647 15.3027 18.8031 15.3937C18.8415 15.4847 18.8613 15.5824 18.8613 15.6812C18.8613 15.7799 18.8415 15.8777 18.8031 15.9687C18.7647 16.0597 18.7085 16.142 18.6377 16.2109C18.4927 16.3522 18.2983 16.4312 18.0958 16.4312C17.8934 16.4312 17.6989 16.3522 17.5539 16.2109L9.43212 8.2923L1.30874 16.2109C1.23576 16.2822 1.14946 16.3384 1.05476 16.3763C0.960054 16.4143 0.858807 16.4332 0.7568 16.432C0.654792 16.4307 0.554021 16.4095 0.460242 16.3693C0.366463 16.3291 0.281514 16.2709 0.210243 16.1979C0.142302 16.1284 0.0887371 16.0462 0.0526145 15.9559C0.0164918 15.8657 -0.00148032 15.7692 -0.000272854 15.672C0.000934616 15.5748 0.0212984 15.4788 0.0596518 15.3894C0.0980051 15.3001 0.153595 15.2192 0.223242 15.1514L8.86499 6.73067C9.01673 6.58277 9.22023 6.5 9.43212 6.5C9.64401 6.5 9.84751 6.58277 9.99924 6.73067L18.6377 15.1514V15.1514Z" fill="black"/>
</svg>
